<?xml version="1.0" encoding="UTF-8"?>
<svg width="26.696mm" height="13.567mm" version="1.1" viewBox="0 0 26.696 13.567" xmlns="http://www.w3.org/2000/svg" xmlns:cc="http://creativecommons.org/ns#" xmlns:dc="http://purl.org/dc/elements/1.1/" xmlns:rdf="http://www.w3.org/1999/02/22-rdf-syntax-ns#">
 <defs>
  <clipPath id="clipPath857">
   <rect x="-46.387" y="-8.8874" width="9.4541" height="9.2889" fill="#4d4d4d" stop-color="#000000"/>
  </clipPath>
  <clipPath id="clipPath1054">
   <rect x="-31.186" y="35.433" width="2.6492" height="2.2911" fill="#666" stop-color="#000000" style="font-variation-settings:normal"/>
   <rect transform="rotate(-90)" x="-35.268" y="-42.485" width="11.93" height="2.359" fill="#666" stop-color="#000000" style="font-variation-settings:normal"/>
   <rect transform="rotate(-90)" x="-33.228" y="-37.891" width="11.774" height="10.953" fill="#666" stop-color="#000000" style="font-variation-settings:normal"/>
  </clipPath>
 </defs>
 <metadata>
  <rdf:RDF>
   <cc:Work rdf:about="">
    <dc:format>image/svg+xml</dc:format>
    <dc:type rdf:resource="http://purl.org/dc/dcmitype/StillImage"/>
    <dc:title/>
   </cc:Work>
  </rdf:RDF>
 </metadata>
 <g transform="translate(56.008 -8.5781)">
  <rect x="-159.24" y="-63.571" width="78.575" height="103.64" fill="#051a26" stop-color="#000000"/>
  <rect x="-42.128" y="-10.276" width="12.067" height="12.067" fill="none" stop-color="#000000" stroke="#fff" stroke-linecap="round" stroke-linejoin="round" stroke-width="1.5"/>
  <path transform="translate(5.5649)" d="m-47.535-1.6533 3.5972-4.6916 3.565 4.4299 2.3011-2.8454 2.473 2.9121-0.02703 3.6386h-12.067z" clip-path="url(#clipPath857)" fill="#fff"/>
  <circle d="m -32.621396,-7.0507836 a 1.2598182,1.2598182 0 0 1 -1.258867,1.2598178 1.2598182,1.2598182 0 0 1 -1.260768,-1.2579159 1.2598182,1.2598182 0 0 1 1.256964,-1.2617169 1.2598182,1.2598182 0 0 1 1.262665,1.2560111 z" fill="#fff" stop-color="#000000" stroke-width="0"/>
  <g transform="matrix(1.3217 0 0 1.3217 16.539 1.8177)" fill="#fff" stroke="#fff" stroke-linecap="round" stroke-width="1.5">
   <path d="m-50.785-8.0732v6.9754"/>
   <path d="m-47.297-4.5855h-6.9754"/>
  </g>
  <rect x="-42.128" y="9.3281" width="12.067" height="12.067" fill="none" stop-color="#000000" stroke="#fff" stroke-linecap="round" stroke-linejoin="round" stroke-width="1.5"/>
  <path transform="translate(5.5649 19.605)" d="m-47.535-1.6533 3.5972-4.6916 3.565 4.4299 2.3011-2.8454 2.473 2.9121-0.02703 3.6386h-12.067z" clip-path="url(#clipPath857)" fill="#fff"/>
  <circle d="m -32.621396,12.553749 a 1.2598182,1.2598182 0 0 1 -1.258867,1.259818 1.2598182,1.2598182 0 0 1 -1.260768,-1.257916 1.2598182,1.2598182 0 0 1 1.256964,-1.261717 1.2598182,1.2598182 0 0 1 1.262665,1.256011 z" fill="#fff" stop-color="#000000" stroke-width="0"/>
  <g transform="matrix(1.3217 0 0 1.3217 16.716 22.141)" fill="none" stroke="#fff" stroke-linecap="round">
   <path transform="matrix(.20018 0 0 .20018 -12.514 -16.208)" d="m-201.15 48.197-7.4551 9.8613 7.4551 9.8633" stroke-linejoin="round" stroke-width="7.4932"/>
   <path d="m-54.272-4.5857h7.0501" stop-color="#000000" stroke-width="1.5" style="font-variation-settings:normal"/>
   <path d="m-48.237-2.6112 1.4924-1.9741-1.4924-1.9745" stroke-linejoin="round" stroke-width="1.5"/>
  </g>
  <path d="m-29.581 37.784h-11.088v-11.088" fill="none" stop-color="#000000" stroke="#fff" stroke-linecap="round" stroke-linejoin="round" stroke-width="1.5"/>
  <path transform="translate(-1.6543 3.4568)" d="m-40.959 25.2h11.088v11.088" clip-path="url(#clipPath1054)" fill="none" stop-color="#000000" stroke="#fff" stroke-linecap="round" stroke-linejoin="round" stroke-width="1.5"/>
 </g>
</svg>
